<svg xmlns="http://www.w3.org/2000/svg" viewBox="0 0 500 500"><!--Old Day--><g id="freepik--Floor--inject-1--inject-47"><ellipse id="freepik--floor--inject-1--inject-47" cx="250" cy="340.55" rx="229.28" ry="136" style="fill:#f5f5f5"></ellipse></g><g id="freepik--Shadows--inject-1--inject-47"><path id="freepik--Shadow--inject-1--inject-47" d="M404.75,405.66c-88-40-164.73-84.39-231.46-133.63-6.88-5.72-5.07-11.4,1.07-14.94s16.42-3.36,23,.42l231.92,133.9c6.54,3.78,6.87,9.71.73,13.25S414.12,409.33,404.75,405.66Z" style="fill:#e0e0e0"></path><ellipse id="freepik--shadow--inject-1--inject-47" cx="161.27" cy="388.92" rx="95.02" ry="54.86" style="fill:#e6e6e6"></ellipse><ellipse id="freepik--shadow--inject-1--inject-47" cx="275.56" cy="376.65" rx="92" ry="53.12" style="fill:#e6e6e6"></ellipse></g><g id="freepik--character-2--inject-1--inject-47"><path d="M224.72,181.6l-2.91-1.69c-7.18-4.15-14-6.15-20-6.23h-.53a28.91,28.91,0,0,0-3.12.18c-9.52,1-15.52,3.86-21.1,11l-.32.39c-.2.25-.39.49-.56.74s-.25.34-.36.51-.3.42-.44.64c-.26.41-.52.82-.77,1.25l-.26.47c-.12.2-.22.41-.34.63l0,.07A34.11,34.11,0,0,0,169.84,206v1.36c0,.62,0,1.27,0,1.91v3.37c0,29.19,20.48,64.68,45.75,79.26l2.92,1.69c7.18,4.14,14,6.14,20,6.23h.42c.4,0,.79,0,1.18,0h.38c.34,0,.68,0,1-.08l.5-.05.27,0c9.83-1.08,16.07-4.25,21.61-11.83.25-.32.48-.65.71-1l.08-.12c.26-.39.47-.82.76-1.19,3-3.83,5.06-12.27,5.06-21.23v-3.37C270.48,231.67,250,196.18,224.72,181.6ZM217,288.05c-23.85-13.78-43.18-47.26-43.18-74.8s19.33-38.71,43.18-24.93,43.19,47.26,43.19,74.79S240.87,301.82,217,288.05Z" style="fill:#455a64"></path><path d="M218.48,184.5l-2.92-1.69c-12.5-7.22-23.83-8-32.09-3.35l-.63.38-.16.1c-.26.16-.5.3-.74.47s-.49.33-.72.51a16,16,0,0,0-1.39,1.1l-.65.59a17,17,0,0,0-1.27,1.28q-.32.33-.6.69c-.2.23-.39.46-.58.7s-.39.49-.56.74-.25.34-.36.51-.3.42-.44.64c-.26.41-.52.82-.77,1.25l-.26.47c-.12.2-.22.41-.34.63l-.32.64a25,25,0,0,0-1.05,2.41c-.18.44-.35.88-.5,1.34,0,0,0,0,0,.05-.29.83-.54,1.68-.77,2.56-.13.47-.25.95-.36,1.45s-.24,1.12-.35,1.69c0,.26-.1.54-.14.81-.08.47-.15.94-.21,1.42s-.14,1.05-.19,1.6l0,.27c0,.46-.09.93-.12,1.4l0,.57c0,.52-.06,1.05-.07,1.59s0,1.27,0,1.91v3.37c0,29.19,20.48,64.68,45.75,79.26l2.92,1.69c7.34,4.24,14.28,6.25,20.43,6.25.4,0,.79,0,1.18,0h.38c.34,0,.68,0,1-.08l.5-.05,1-.14c.3,0,.6-.1.88-.16s.59-.11.86-.18c.55-.13,1.09-.27,1.61-.44l.66-.21c.26-.09.5-.17.73-.27l.61-.25a13.92,13.92,0,0,0,1.3-.59c.22-.1.43-.22.64-.33a1.28,1.28,0,0,1,.17-.1,1.41,1.41,0,0,0,.24-.13c.14-.07.26-.15.4-.23,8.13-4.85,13.14-15,13.14-29.46v-3.37C264.24,234.57,243.75,199.09,218.48,184.5ZM217,288.05c-23.85-13.78-43.18-47.26-43.18-74.8s19.33-38.71,43.18-24.93,43.19,47.26,43.19,74.79S240.87,301.82,217,288.05Z" style="fill:#37474f"></path><path d="M249.14,281c-6.83,8.13-18.66,9.29-32.12,1.53-21.2-12.24-38.39-42-38.39-66.49,0-10.94,3.44-19,9.13-23.43-4,4.69-6.27,11.7-6.27,20.66,0,24.48,17.19,54.24,38.39,66.49C231.6,286.51,242.1,286.5,249.14,281Z" style="fill:#BA68C8"></path><path d="M249.14,281c-6.83,8.13-18.66,9.29-32.12,1.53-21.2-12.24-38.39-42-38.39-66.49,0-10.94,3.44-19,9.13-23.43-4,4.69-6.27,11.7-6.27,20.66,0,24.48,17.19,54.24,38.39,66.49C231.6,286.51,242.1,286.5,249.14,281Z" style="opacity:0.2"></path><path d="M217,188.32c-23.85-13.77-43.18-2.61-43.18,24.93s19.33,61,43.18,74.79,43.18,2.61,43.18-24.93S240.87,202.09,217,188.32Zm0,94.18c-21.2-12.24-38.38-42-38.38-66.48s17.18-34.4,38.38-22.16,38.38,42,38.38,66.48S238.22,294.74,217,282.5Z" style="fill:#BA68C8"></path><path d="M254.11,248.16c-.09-.43-.18-.86-.28-1.3l-33.44-9,29.88-2.66c-.15-.38-.29-.77-.45-1.15l-30.19,2.7,24.58-14.19-.6-1L219,235.77l17.34-24.68c-.25-.32-.51-.64-.77-1l-17.16,24.41,8.88-33.11-1-.88-8.73,32.56v-38.9c-.2-.12-.39-.25-.59-.36l-.59-.33v38.25l-8.58-41.93c-.43-.13-.86-.24-1.28-.35L215,230.87l-16.38-42.22c-.42,0-.82.06-1.23.11l16.26,41.91-23-39.91c-.35.18-.69.37-1,.57l23,39.93L184.36,196q-.37.48-.72,1l28.53,35.49-31.92-28.3c-.12.41-.25.83-.36,1.26l32.38,28.71-33.61-19.4c0,.41,0,.81,0,1.23v.12l34.2,19.74L179.7,227c.08.43.16.86.25,1.29l33.7,9L183.35,240c.14.38.29.76.44,1.14l30.62-2.73-25.06,14.47c.19.34.38.69.58,1L215,239.46l-17.77,25.28.77,1,17.59-25-9.12,34,1,.89,9-33.49v40l.59.35.59.33V243.45l8.83,43.14,1.27.33L219,244.36l16.81,43.31c.41,0,.82-.06,1.22-.11l-16.68-43,23.54,40.77c.34-.19.68-.39,1-.61L221.37,244l28.75,35.76c.24-.33.47-.66.7-1l-28.95-36,32.18,28.54c.11-.43.22-.86.32-1.3L221.78,241l33.62,19.41v-.11c0-.42,0-.84,0-1.26L221.2,239.35Z" style="fill:#ebebeb"></path><path d="M218.85,226.4c-2.64-1.53-5-1.62-6.72-.56-.35.22-.77.41-1.22.68a3.17,3.17,0,0,0-.36.23l-.07,0,0,0a5.45,5.45,0,0,0-.46.38l-.09.09c-.13.13-.25.27-.37.41l-.13.17a4.38,4.38,0,0,0-.28.42l-.14.25c-.07.14-.15.28-.21.43l-.14.35-.15.43-.12.46c0,.13-.07.26-.09.4s-.06.4-.09.61,0,.22,0,.34c0,.33-.05.68-.05,1,0,5.93,4.17,13.15,9.31,16.13.33.18.64.35,1,.49s.37.15.55.22.25.11.38.15l.37.11c.18.05.36.11.53.14l.21,0a5.16,5.16,0,0,0,.67.1h0a4.82,4.82,0,0,0,3-.71c.45-.26.85-.46,1.36-.76,1.64-1,2.64-3.05,2.64-6C228.16,236.59,224,229.37,218.85,226.4Zm-2.66,17.89c-1.6-1.24-3.83-5-4.71-7.11a17.36,17.36,0,0,0,1.62,1c2.43,1.25,2.37-.44,3.35.73s.8,4.07,0,5.56A1.1,1.1,0,0,1,216.19,244.29Zm4.72-11a1.76,1.76,0,0,0-.39.18l-1.43.81a1.82,1.82,0,0,0-.72.71,13,13,0,0,1-2.48-7c2.09.71,5.56,3.61,6.09,4.73a1.3,1.3,0,0,1,.1.27A5.9,5.9,0,0,0,220.91,233.26ZM213.85,232c.78,2.81,2,3.24,2,4.16-1.83-.29-4.81-2.08-5-3.84a7.14,7.14,0,0,1,1.61-4.73C213.26,228,213.21,229.72,213.85,232Zm5.26,14.76c-1-.89.11-1.75.6-3.58a5,5,0,0,0,0-2.67c1.9,1.5,4.77,5.45,4,6.62a1.27,1.27,0,0,1-.1.12C222,247.7,219.79,247.42,219.11,246.79Zm4.55-6.12c-2-2.71-2.83-1.77-3.32-3.22a1.84,1.84,0,0,1,.66-1.94,2.39,2.39,0,0,1,2.93,1,17.6,17.6,0,0,1,1.59,6.94C225,242.72,224.43,241.69,223.66,240.67Z" style="fill:#e0e0e0"></path><path d="M218.85,226.4c-2.64-1.53-5-1.62-6.72-.56-.35.22-.77.41-1.22.68a3.17,3.17,0,0,0-.36.23l-.07,0,0,0a5.45,5.45,0,0,0-.46.38l-.09.09c-.13.13-.25.27-.37.41l-.13.17a4.38,4.38,0,0,0-.28.42l-.14.25c-.07.14-.15.28-.21.43l-.14.35-.15.43-.12.46c0,.13-.07.26-.09.4s-.06.4-.09.61,0,.22,0,.34c0,.33-.05.68-.05,1,0,5.93,4.17,13.15,9.31,16.13.33.18.64.35,1,.49s.37.15.55.22.25.11.38.15l.37.11c.18.05.36.11.53.14l.21,0a5.16,5.16,0,0,0,.67.1h0a4.82,4.82,0,0,0,3-.71c.45-.26.85-.46,1.36-.76,1.64-1,2.64-3.05,2.64-6C228.16,236.59,224,229.37,218.85,226.4Zm-2.66,17.89c-1.6-1.24-3.83-5-4.71-7.11a17.36,17.36,0,0,0,1.62,1c2.43,1.25,2.37-.44,3.35.73s.8,4.07,0,5.56A1.1,1.1,0,0,1,216.19,244.29Zm4.72-11a1.76,1.76,0,0,0-.39.18l-1.43.81a1.82,1.82,0,0,0-.72.71,13,13,0,0,1-2.48-7c2.09.71,5.56,3.61,6.09,4.73a1.3,1.3,0,0,1,.1.27A5.9,5.9,0,0,0,220.91,233.26ZM213.85,232c.78,2.81,2,3.24,2,4.16-1.83-.29-4.81-2.08-5-3.84a7.14,7.14,0,0,1,1.61-4.73C213.26,228,213.21,229.72,213.85,232Zm5.26,14.76c-1-.89.11-1.75.6-3.58a5,5,0,0,0,0-2.67c1.9,1.5,4.77,5.45,4,6.62a1.27,1.27,0,0,1-.1.12C222,247.7,219.79,247.42,219.11,246.79Zm4.55-6.12c-2-2.71-2.83-1.77-3.32-3.22a1.84,1.84,0,0,1,.66-1.94,2.39,2.39,0,0,1,2.93,1,17.6,17.6,0,0,1,1.59,6.94C225,242.72,224.43,241.69,223.66,240.67Z" style="opacity:0.2"></path><path d="M217.41,227.21c-5.14-3-9.31-.56-9.31,5.38s4.17,13.15,9.31,16.13,9.31.55,9.31-5.38S222.56,230.18,217.41,227.21Zm-2.3.63c1.84,0,6.26,3.61,6.87,4.89s-1,.81-2.49,1.34c-1.89.66-1,2.49-2.1,2C215.77,235.43,213.27,227.81,215.11,227.84Zm-2.78-.28c.95.16.84,2,1.52,4.47.86,3.11,2.21,3.31,2,4.47-.28,1.7-6.14-.84-6.43-3.35S211.38,227.39,212.33,227.56Zm2.43,17.53c-2-1.56-5.06-7.17-5.09-8.35s1.53.45,3.43,1.43c2.43,1.25,2.37-.44,3.35.73C217.9,240.62,216.78,246.67,214.76,245.09Zm9,2.07c-1,1.53-5.07,1.33-6,.44s.12-1.75.61-3.59c.63-2.33-.75-3.58.05-4C219.51,239.36,224.68,245.64,223.72,247.16Zm-1.48-5.69c-2-2.7-2.83-1.77-3.32-3.21-.73-2.11,3.59-4.28,5-1.76s1.93,8,1.36,8.62S223.83,243.6,222.24,241.47Z" style="fill:#e0e0e0"></path><path d="M217,243.27c2.43,1.4,4.4.26,4.4-2.55a9.73,9.73,0,0,0-4.4-7.62c-2.43-1.41-4.4-.27-4.4,2.54A9.75,9.75,0,0,0,217,243.27Z" style="fill:#455a64"></path><path d="M241,190.66l-2,1.77a76,76,0,0,0-14.26-10.83l-2.92-1.69c-7.18-4.15-14-6.15-20-6.23h0l-.53,0a24.56,24.56,0,0,0-3.12.18c-9.51,1-15.52,3.85-21.1,11l-.32.39c-.2.25-.4.49-.57.75s-.24.33-.35.5-.3.42-.44.63c-.26.42-.52.83-.76,1.26l-.27.47c-.12.2-.22.41-.34.63l0,.07A34.11,34.11,0,0,0,169.83,206v1.37q0,.94,0,1.92v3.36c0,9.64,2.24,20,6.14,30l-1.7,1.22s-8.33-17.32-9.39-36.58,9-34.57,29.23-38.33S241,190.66,241,190.66Z" style="fill:#BA68C8"></path><path d="M241,190.66l-2,1.77a76,76,0,0,0-14.26-10.83l-2.92-1.69c-7.18-4.15-14-6.15-20-6.23h0l-.53,0a24.56,24.56,0,0,0-3.12.18c-9.51,1-15.52,3.85-21.1,11l-.32.39c-.2.25-.4.49-.57.75s-.24.33-.35.5-.3.42-.44.63c-.26.42-.52.83-.76,1.26l-.27.47c-.12.2-.22.41-.34.63l0,.07A34.11,34.11,0,0,0,169.83,206v1.37q0,.94,0,1.92v3.36c0,9.64,2.24,20,6.14,30l-1.7,1.22s-8.33-17.32-9.39-36.58,9-34.57,29.23-38.33S241,190.66,241,190.66Z" style="opacity:0.30000000000000004"></path><path d="M244.71,191a17.26,17.26,0,0,1-5.85,4.41.7.7,0,0,1-.17.09,21.1,21.1,0,0,1-2.55,1l-.16,0a97.52,97.52,0,0,0-18.68-15.27c-27.77-16.83-50.44-8.39-50.56,27.41,0,10.8,3.06,24.53,7.5,35.14a7.62,7.62,0,0,1-3.59-1.47c-4.21-11-6.64-22.29-6.64-32.84v-3.74c0-.72,0-1.44,0-2.13v-1.52A37.89,37.89,0,0,1,168.63,184l0-.08c.13-.25.25-.49.38-.71s.2-.35.3-.51c.26-.49.56-.94.85-1.39a8,8,0,0,1,.48-.71c.13-.19.26-.38.4-.56a8.39,8.39,0,0,1,.62-.82c.12-.16.24-.3.37-.45s.18-.23.27-.35c6.11-7.7,12.75-10.79,23.16-11.89a30.22,30.22,0,0,1,3.47-.21h.58c6.72.09,14.26,2.31,22.23,6.92l3.25,1.87A87.61,87.61,0,0,1,244.71,191Z" style="fill:#BA68C8"></path><path d="M244.71,191a17.26,17.26,0,0,1-5.85,4.41.7.7,0,0,1-.17.09,21.1,21.1,0,0,1-2.55,1l-.16,0a97.52,97.52,0,0,0-18.68-15.27c-27.77-16.83-50.44-8.39-50.56,27.41,0,10.8,3.06,24.53,7.5,35.14a7.62,7.62,0,0,1-3.59-1.47c-4.21-11-6.64-22.29-6.64-32.84v-3.74c0-.72,0-1.44,0-2.13v-1.52A37.89,37.89,0,0,1,168.63,184l0-.08c.13-.25.25-.49.38-.71s.2-.35.3-.51c.26-.49.56-.94.85-1.39a8,8,0,0,1,.48-.71c.13-.19.26-.38.4-.56a8.39,8.39,0,0,1,.62-.82c.12-.16.24-.3.37-.45s.18-.23.27-.35c6.11-7.7,12.75-10.79,23.16-11.89a30.22,30.22,0,0,1,3.47-.21h.58c6.72.09,14.26,2.31,22.23,6.92l3.25,1.87A87.61,87.61,0,0,1,244.71,191Z" style="fill:#fff;opacity:0.5"></path><path d="M238.86,195.4h0l-.17.08a8.81,8.81,0,0,1-2.55,1l-.16,0a97.52,97.52,0,0,0-18.68-15.27c-27.77-16.83-50.44-8.39-50.56,27.41,0,10.8,3.06,24.53,7.5,35.14a7.62,7.62,0,0,1-3.59-1.47c-4.21-11-6.64-22.29-6.64-32.84v-3.74c0-.72,0-1.44,0-2.13s0-1.18.08-1.76l0-.63c0-.53.09-1.05.14-1.57l0-.29c.06-.61.13-1.2.22-1.78s.13-1.06.22-1.58c0-.3.11-.61.16-.9.11-.63.24-1.27.39-1.88s.26-1.08.4-1.61c.26-1,.53-1.93.85-2.84,0,0,0,0,0-.06.16-.51.35-1,.55-1.49a24.79,24.79,0,0,1,1.18-2.67l.3-.63,0-.08c.13-.25.25-.49.38-.71s.2-.35.3-.51c.26-.49.56-.94.85-1.39a8,8,0,0,1,.48-.71c.13-.19.26-.38.4-.56a8.39,8.39,0,0,1,.62-.82c.12-.16.24-.3.37-.45s.18-.23.27-.35.44-.51.68-.76a17.07,17.07,0,0,1,1.4-1.42l.73-.65a15.83,15.83,0,0,1,1.54-1.22c.26-.2.53-.4.8-.57s.54-.35.82-.53l.18-.11c.23-.15.47-.28.7-.42,9.18-5.12,21.77-4.29,35.66,3.73l3.24,1.88A88.58,88.58,0,0,1,238.86,195.4Z" style="fill:#BA68C8"></path><path d="M362.35,252.16a1.58,1.58,0,0,0-2.21-.32l-4.05,3-.73-2.94-69.79,41.39s-1.29.7-1.38.77l-67-57.49a1.59,1.59,0,0,0-2.06,2.41l69.43,59.59a3.47,3.47,0,0,0,.54.37,2.76,2.76,0,0,0,1.4.4,3.12,3.12,0,0,0,1.88-.72h0l68.5-40.42,5.14-3.85A1.58,1.58,0,0,0,362.35,252.16Z" style="fill:#BA68C8"></path><path d="M362.35,252.16a1.58,1.58,0,0,0-2.21-.32l-4.05,3-.73-2.94-69.79,41.39s-1.29.7-1.38.77l-67-57.49a1.59,1.59,0,0,0-2.06,2.41l69.43,59.59a3.47,3.47,0,0,0,.54.37,2.76,2.76,0,0,0,1.4.4,3.12,3.12,0,0,0,1.88-.72h0l68.5-40.42,5.14-3.85A1.58,1.58,0,0,0,362.35,252.16Z" style="opacity:0.30000000000000004"></path><path d="M285.91,299.19a1.58,1.58,0,0,1-1.55-1.29L269,169.42a1.68,1.68,0,0,1,1-1.91,1.58,1.58,0,0,1,2.08,1.2L287.47,297.3a1.59,1.59,0,0,1-1.26,1.86Z" style="fill:#BA68C8"></path><path d="M285.91,299.19a1.58,1.58,0,0,1-1.55-1.29L269,169.42a1.68,1.68,0,0,1,1-1.91,1.58,1.58,0,0,1,2.08,1.2L287.47,297.3a1.59,1.59,0,0,1-1.26,1.86Z" style="opacity:0.30000000000000004"></path><path d="M217.35,238.63a1.51,1.51,0,0,1,.37-2.41l19.41-10.12A101.83,101.83,0,0,1,316.69,218a204.54,204.54,0,0,1,22.49,7.6c7.36,3.16,15.06,9.41,16.33,18.2l.1.71s1.23,10.53-12.56,5-40.08-15.6-52.88-18.72-20.46-6.65-22.05-11.9c-11.62,2.1-25.88,7.63-49,20a1.5,1.5,0,0,1-1.76-.26Z" style="fill:#BA68C8"></path><path d="M340.41,231.48c-13.62-8.49-51.64-17.09-72.29-12.59a7.9,7.9,0,0,0,1.28,2.43c19.38-1.32,37.68,2.94,48.7,9.27,9.17,5.26,10.31,11.36,10.43,13.27,5.47,2.09,10.52,4.07,14.52,5.65,7.16,2.84,10.27,1.37,11.6-.7C354.44,243.86,353,239.36,340.41,231.48Z" style="fill:#f0f0f0"></path><path d="M288.22,281.39c-3.66-2.12-7-2.25-9.29-.78-.49.31-1.08.58-1.7.95-.17.09-.33.21-.5.32l-.08.05,0,0a6.21,6.21,0,0,0-.63.52l-.13.13a6.91,6.91,0,0,0-.51.57,2,2,0,0,0-.17.23c-.14.18-.27.38-.4.58l-.19.35-.3.6-.18.48c-.07.19-.15.38-.21.59s-.11.42-.16.63a5.66,5.66,0,0,0-.13.56,7.72,7.72,0,0,0-.12.84c0,.16-.05.31-.07.47,0,.46-.06.94-.06,1.43,0,8.22,5.77,18.2,12.88,22.31a13.91,13.91,0,0,0,1.32.69c.26.12.51.2.76.3s.35.15.53.21.34.1.52.15.49.15.73.2l.28,0c.31.06.63.11.93.14h.06a6.76,6.76,0,0,0,4.2-1c.62-.37,1.18-.64,1.88-1.06,2.26-1.37,3.66-4.22,3.66-8.25C301.1,295.48,295.33,285.5,288.22,281.39Zm-3.68,24.74c-2.21-1.72-5.3-6.93-6.52-9.84a23.51,23.51,0,0,0,2.25,1.38c3.35,1.73,3.27-.61,4.63,1s1.1,5.63,0,7.69A1.87,1.87,0,0,1,284.54,306.13Zm6.53-15.26a4.08,4.08,0,0,0-.55.25l-2,1.13a2.48,2.48,0,0,0-1,1c-1.66-1.69-3.58-7.09-3.43-9.62,2.88,1,7.68,5,8.42,6.54a1.54,1.54,0,0,1,.14.37A8.27,8.27,0,0,0,291.07,290.87Zm-9.78-1.7c1.09,3.9,2.71,4.49,2.82,5.76-2.53-.41-6.65-2.87-6.93-5.31a9.85,9.85,0,0,1,2.23-6.54C280.48,283.55,280.41,286,281.29,289.17Zm7.29,20.42c-1.35-1.23.14-2.42.83-5a6.93,6.93,0,0,0,0-3.69C292,303,296,308.49,295,310.11c0,.06-.09.1-.13.16C292.61,310.85,289.51,310.46,288.58,309.59Zm6.28-8.46c-2.8-3.75-3.91-2.46-4.58-4.45a2.57,2.57,0,0,1,.91-2.69,3.29,3.29,0,0,1,4.05,1.37c1.37,2.42,2.13,6.85,2.19,9.6C296.76,304,295.93,302.54,294.86,301.13Z" style="fill:#e0e0e0"></path><path d="M288.22,281.39c-3.66-2.12-7-2.25-9.29-.78-.49.31-1.08.58-1.7.95-.17.09-.33.21-.5.32l-.08.05,0,0a6.21,6.21,0,0,0-.63.52l-.13.13a6.91,6.91,0,0,0-.51.57,2,2,0,0,0-.17.23c-.14.18-.27.38-.4.58l-.19.35-.3.6-.18.48c-.07.19-.15.38-.21.59s-.11.42-.16.63a5.66,5.66,0,0,0-.13.56,7.72,7.72,0,0,0-.12.84c0,.16-.05.31-.07.47,0,.46-.06.94-.06,1.43,0,8.22,5.77,18.2,12.88,22.31a13.91,13.91,0,0,0,1.32.69c.26.12.51.2.76.3s.35.15.53.21.34.1.52.15.49.15.73.2l.28,0c.31.06.63.11.93.14h.06a6.76,6.76,0,0,0,4.2-1c.62-.37,1.18-.64,1.88-1.06,2.26-1.37,3.66-4.22,3.66-8.25C301.1,295.48,295.33,285.5,288.22,281.39Zm-3.68,24.74c-2.21-1.72-5.3-6.93-6.52-9.84a23.51,23.51,0,0,0,2.25,1.38c3.35,1.73,3.27-.61,4.63,1s1.1,5.63,0,7.69A1.87,1.87,0,0,1,284.54,306.13Zm6.53-15.26a4.08,4.08,0,0,0-.55.25l-2,1.13a2.48,2.48,0,0,0-1,1c-1.66-1.69-3.58-7.09-3.43-9.62,2.88,1,7.68,5,8.42,6.54a1.54,1.54,0,0,1,.14.37A8.27,8.27,0,0,0,291.07,290.87Zm-9.78-1.7c1.09,3.9,2.71,4.49,2.82,5.76-2.53-.41-6.65-2.87-6.93-5.31a9.85,9.85,0,0,1,2.23-6.54C280.48,283.55,280.41,286,281.29,289.17Zm7.29,20.42c-1.35-1.23.14-2.42.83-5a6.93,6.93,0,0,0,0-3.69C292,303,296,308.49,295,310.11c0,.06-.09.1-.13.16C292.61,310.85,289.51,310.46,288.58,309.59Zm6.28-8.46c-2.8-3.75-3.91-2.46-4.58-4.45a2.57,2.57,0,0,1,.91-2.69,3.29,3.29,0,0,1,4.05,1.37c1.37,2.42,2.13,6.85,2.19,9.6C296.76,304,295.93,302.54,294.86,301.13Z" style="opacity:0.2"></path><path d="M286.23,282.51c-7.11-4.1-12.88-.78-12.88,7.43s5.77,18.2,12.88,22.31,12.87.77,12.87-7.44S293.34,286.62,286.23,282.51Zm-3.19.87c2.55,0,8.66,5,9.51,6.77s-1.4,1.12-3.45,1.85c-2.61.91-1.37,3.44-2.9,2.81C284,293.88,280.5,283.34,283,283.38ZM279.2,283c1.31.22,1.15,2.79,2.09,6.18,1.2,4.3,3.07,4.58,2.81,6.19-.4,2.35-8.5-1.17-8.89-4.63S277.89,282.76,279.2,283Zm3.36,24.25c-2.78-2.16-7-9.92-7-11.55s2.12.62,4.75,2c3.35,1.73,3.27-.61,4.63,1C286.91,301.06,285.35,309.42,282.56,307.24ZM295,310.11c-1.33,2.11-7,1.83-8.35.6s.16-2.42.85-5c.86-3.22-1.05-4.95.06-5.56C289.13,299.31,296.28,308,295,310.11Zm-2.05-7.87c-2.8-3.74-3.91-2.46-4.59-4.45-1-2.92,5-5.91,6.93-2.43s2.68,11.06,1.89,11.93S295.11,305.17,292.9,302.24Z" style="fill:#e0e0e0"></path><path d="M286.23,301.93c2.17,1.25,3.94.24,3.94-2.28a8.73,8.73,0,0,0-3.94-6.82c-2.18-1.26-3.94-.24-3.94,2.28A8.7,8.7,0,0,0,286.23,301.93Z" style="fill:#455a64"></path><path d="M273.22,318.17a1.12,1.12,0,0,1-.47-.11,1.07,1.07,0,0,1-.48-1.42L281,299l4.57-2.63a1,1,0,0,1,1.44.38,1.07,1.07,0,0,1-.38,1.45l-4,2.32-8.43,17.06A1,1,0,0,1,273.22,318.17Z" style="fill:#BA68C8"></path><g style="opacity:0.30000000000000004"><path d="M273.22,318.17a1.12,1.12,0,0,1-.47-.11,1.07,1.07,0,0,1-.48-1.42L281,299l4.57-2.63a1,1,0,0,1,1.44.38,1.07,1.07,0,0,1-.38,1.45l-4,2.32-8.43,17.06A1,1,0,0,1,273.22,318.17Z"></path></g><path d="M277.63,319.82,269.28,315a1.49,1.49,0,0,0-1.5,0l-11.63,6.71a1.5,1.5,0,0,0-.74,1.3v.75a1.49,1.49,0,0,0,.74,1.29l8.37,4.83a1.47,1.47,0,0,0,1.49,0l11.62-6.72a1.5,1.5,0,0,0,.74-1.3v-.75A1.49,1.49,0,0,0,277.63,319.82Z" style="fill:#BA68C8"></path><path d="M277.63,319.82,269.28,315a1.49,1.49,0,0,0-1.5,0l-11.63,6.71a1.5,1.5,0,0,0-.74,1.3v.75a1.49,1.49,0,0,0,.74,1.29l8.37,4.83a1.47,1.47,0,0,0,1.49,0l11.62-6.72a1.5,1.5,0,0,0,.74-1.3v-.75A1.49,1.49,0,0,0,277.63,319.82Z" style="opacity:0.2"></path><path d="M264.57,327.44a1.43,1.43,0,0,0,1.39,0l12.21-7.07a1.43,1.43,0,0,0-.54-.55l-2.34-1.35-6-3.47a1.49,1.49,0,0,0-1.5,0l-1.41.81-10.22,5.9a1.5,1.5,0,0,0-.54.55Z" style="fill:#BA68C8"></path><path d="M304.86,300.53c-.06-9.49-1.25-15.65-12.9-25.32-10.13-8.4-58.87-30-58.87-30l-2,1.25,42.73,37,2-1.25a6.61,6.61,0,0,1,1.7-2.63c1.87-.7,4.6-.69,8.53,1.25,9.61,4.74,12.63,12,13.79,19.37l3,1.66Z" style="fill:#BA68C8"></path><path d="M304.86,300.53c-.06-9.49-1.25-15.65-12.9-25.32-10.13-8.4-58.87-30-58.87-30l-2,1.25,42.73,37,2-1.25a6.61,6.61,0,0,1,1.7-2.63c1.87-.7,4.6-.69,8.53,1.25,9.61,4.74,12.63,12,13.79,19.37l3,1.66Z" style="opacity:0.30000000000000004"></path><path d="M273.81,283.38l-42.73-37s48.74,21.65,58.87,30.06c11.64,9.66,12.83,15.82,12.9,25.31l-3-1.66c-1.16-7.39-4.18-14.63-13.79-19.37C276,275.81,273.81,283.38,273.81,283.38Z" style="fill:#BA68C8"></path><path d="M307.47,185.13c-3.19-5.19-10.7-12.77-10.7-12.77s-19.35-26-40.81-13.65a14.28,14.28,0,0,0-7.45,10.57,18,18,0,0,0-.16,4.66,11.27,11.27,0,0,0,2.65,6.53c2.83,3.9,10.82,7.11,20.4,9.53l2.06.5c3.42.78,6.86,1.45,10.3,2.14s6.82,1.39,10.17,2.29a42,42,0,0,1,4.09,1.26c.55.2,1.09.42,1.62.67a5.4,5.4,0,0,0,2.07.9,6.76,6.76,0,0,0,1.48-.15,6.56,6.56,0,0,0,1.32-.34,5,5,0,0,0,1.05-.62,7.8,7.8,0,0,0,2.63-3.73A9.22,9.22,0,0,0,307.47,185.13Z" style="fill:#455a64"></path><polygon points="308.87 396.83 314.13 394.36 312.07 390.83 308.98 394.2 308.87 396.83" style="fill:#263238"></polygon><path d="M302.49,387.49s.06,3.54.1,4.66,5.06,4.2,6.28,4.68l.11-2.63a20.24,20.24,0,0,1,3,4c1,1.51,2.44,4.42,5.11,6.26,4,2.74,9.89,3.83,15.83,3.57s9.22-2,10.8-3.39,2-3,1.46-4.44S302.49,387.49,302.49,387.49Z" style="fill:#37474f"></path><rect x="302.7" y="362.29" width="13.86" height="20.19" transform="translate(684.73 678.73) rotate(168.98)" style="fill:#ffa8a7"></rect><path d="M317.06,374.25l-.38-1.95c1.41.31,7.16,10.58,13,15.14,6.44,5,12.07,8,14.95,10.26,3.85,3-2,8.75-11.75,9-4.82.11-13.53-1.63-16.15-4.27s-4.44-7-6.53-8.86-6.36-3.66-7.75-6.06c-.77-1.33-.79-4.54-.61-7.3.16-2.53.33-5.31,1.19-5.24.06.29.29,1.48.29,1.48,1.2.91,5,2.12,8.16,2.07C313.81,378.47,318.07,378.07,317.06,374.25Z" style="fill:#BA68C8"></path><path d="M317.06,374.25l-.38-1.95c1.41.31,7.16,10.58,13,15.14,6.44,5,12.07,8,14.95,10.26,3.85,3-2,8.75-11.75,9-4.82.11-13.53-1.63-16.15-4.27s-4.44-7-6.53-8.86-6.36-3.66-7.75-6.06c-.77-1.33-.79-4.54-.61-7.3.16-2.53.33-5.31,1.19-5.24.06.29.29,1.48.29,1.48,1.2.91,5,2.12,8.16,2.07C313.81,378.47,318.07,378.07,317.06,374.25Z" style="opacity:0.30000000000000004"></path><path d="M313,378.43c2.64-.12,3.37,0,6.51,3.05,2.12,2.06,13.22,13,13.22,13s-12.05-13.4-13.94-15.28a4.33,4.33,0,0,1-1.54-3.64C317,377.22,315.52,378.13,313,378.43Z" style="opacity:0.15"></path><path d="M344.67,397.7c-2.43-1.9-6.83-4.35-12-8.07,1.16,1.55,2.75,2.7,2.95,3.23.48,1.31-3.35,3.49-5.72,4.32s-5.38-2.42-9.2-5.27-6.67,1.06-7.54,5.55a29.31,29.31,0,0,0,3.62,5c2.62,2.64,11.33,4.38,16.15,4.27C342.63,406.45,348.52,400.72,344.67,397.7Z" style="opacity:0.15"></path><path d="M344.67,397.7c-.94-.73-2.18-1.56-3.65-2.5H341c-11.35.44-14.31,10.87-14.32,10.91a34.13,34.13,0,0,0,6.29.57C342.63,406.45,348.52,400.72,344.67,397.7Z" style="opacity:0.15"></path><path d="M315.45,381.82a.59.59,0,0,1-.61.58.6.6,0,1,1,.61-.58Z" style="opacity:0.15"></path><path d="M318.55,384.75a.58.58,0,0,1-.61.57.59.59,0,0,1-.57-.61.59.59,0,0,1,.61-.57A.59.59,0,0,1,318.55,384.75Z" style="opacity:0.15"></path><path d="M321.66,387.68a.6.6,0,0,1-1.19,0,.59.59,0,0,1,.61-.57A.59.59,0,0,1,321.66,387.68Z" style="opacity:0.15"></path><path d="M324.76,390.61a.6.6,0,1,1-.58-.62A.61.61,0,0,1,324.76,390.61Z" style="opacity:0.15"></path><path d="M327.86,393.53a.59.59,0,1,1-.57-.61A.59.59,0,0,1,327.86,393.53Z" style="opacity:0.15"></path><path d="M314.86,382a.25.25,0,0,1-.16-.06.23.23,0,0,1,0-.33,9.72,9.72,0,0,1,6.47-3.18h0a.23.23,0,0,1,.23.24.23.23,0,0,1-.23.24,9.41,9.41,0,0,0-6.12,3A.23.23,0,0,1,314.86,382Z" style="fill:#37474f"></path><path d="M318,385a.25.25,0,0,1-.16-.06.24.24,0,0,1,0-.34,9.8,9.8,0,0,1,6.47-3.17h0a.23.23,0,0,1,.24.23.25.25,0,0,1-.24.25c-3.52.07-6.09,3-6.12,3A.25.25,0,0,1,318,385Z" style="fill:#37474f"></path><path d="M321.06,387.9a.22.22,0,0,1-.15-.06.25.25,0,0,1,0-.34,9.81,9.81,0,0,1,6.48-3.17h0a.23.23,0,0,1,.24.23.25.25,0,0,1-.23.25c-3.53.07-6.1,3-6.13,3A.23.23,0,0,1,321.06,387.9Z" style="fill:#37474f"></path><path d="M324.17,390.83a.23.23,0,0,1-.16-.06.24.24,0,0,1,0-.34,9.72,9.72,0,0,1,6.47-3.17h0a.23.23,0,0,1,.24.23.23.23,0,0,1-.23.24c-3.52.08-6.1,3-6.12,3A.24.24,0,0,1,324.17,390.83Z" style="fill:#37474f"></path><path d="M327.27,393.75a.25.25,0,0,1-.16-.06.23.23,0,0,1,0-.33,9.72,9.72,0,0,1,6.47-3.18h0a.25.25,0,0,1,.24.24.24.24,0,0,1-.24.24,9.44,9.44,0,0,0-6.12,3A.23.23,0,0,1,327.27,393.75Z" style="fill:#37474f"></path><polygon points="214.36 358.78 220.32 359.46 220.42 355.24 215.88 356.52 214.36 358.78" style="fill:#263238"></polygon><path d="M213.82,347.1s-1.87,3.16-2.44,4.16,2.16,6.43,3,7.52l1.52-2.26a21.12,21.12,0,0,1,.51,5.17c.09,1.9-.26,5.21,1.08,8.29,2,4.56,6.62,8.73,12,11.73s9.17,3.27,11.33,2.88,3.36-1.51,3.69-3.1S213.82,347.1,213.82,347.1Z" style="fill:#37474f"></path><polygon points="217.17 342.46 230.07 348.89 241.8 333.07 231.18 323.8 217.17 342.46" style="fill:#ffa8a7"></polygon><path d="M234,343.54l1.11-1.53c1.07,1.05-.06,12.64,2.63,19.84,2.94,7.89,6.25,13.6,7.55,17.14,1.75,4.74-6.54,6.58-15.19,1.51-4.3-2.52-11-8.78-11.88-12.53s-.12-8.52-.92-11.33-3.6-6.67-3.52-9.54c.05-1.57,1.77-4.41,3.43-6.74,1.51-2.13,3.73-4.55,4.45-4a13.17,13.17,0,0,1-1.11,1.53c.57,1.44,3.26,4.58,6,6.25C228.66,345.33,231.66,347,234,343.54Z" style="fill:#BA68C8"></path><path d="M234,343.54l1.11-1.53c1.07,1.05-.06,12.64,2.63,19.84,2.94,7.89,6.25,13.6,7.55,17.14,1.75,4.74-6.54,6.58-15.19,1.51-4.3-2.52-11-8.78-11.88-12.53s-.12-8.52-.92-11.33-3.6-6.67-3.52-9.54c.05-1.57,1.77-4.41,3.43-6.74,1.51-2.13,3.73-4.55,4.45-4a13.17,13.17,0,0,1-1.11,1.53c.57,1.44,3.26,4.58,6,6.25C228.66,345.33,231.66,347,234,343.54Z" style="opacity:0.30000000000000004"></path><path d="M227.93,344.82c2.39,1.34,3,1.84,4.06,6.22.75,3,4.55,18.62,4.55,18.62s-3.31-18.31-3.95-21a4.87,4.87,0,0,1,.67-4.19C231.74,345.78,230.35,346,227.93,344.82Z" style="opacity:0.15"></path><path d="M245.33,379c-1.1-3-3.63-7.53-6.16-13.62.17,2,1,3.87.83,4.44-.28,1.41-4.83,1.25-7.36.7s-3.43-5.05-5.23-9.63-6.44-2.7-9.64.78a31.21,31.21,0,0,0,.49,6.31c.87,3.75,7.58,10,11.88,12.53C238.79,385.57,247.08,383.73,245.33,379Z" style="opacity:0.15"></path><path d="M245.33,379c-.42-1.16-1.07-2.56-1.84-4.18l-.06,0c-10.21-5.77-18.48,1.78-18.51,1.81a34.93,34.93,0,0,0,5.22,3.92C238.79,385.57,247.08,383.73,245.33,379Z" style="opacity:0.15"></path><path d="M228.29,349.17a.62.62,0,1,1-.18-.85A.62.62,0,0,1,228.29,349.17Z" style="opacity:0.15"></path><path d="M229.42,353.42a.61.61,0,1,1-.17-.84A.6.6,0,0,1,229.42,353.42Z" style="opacity:0.15"></path><path d="M230.56,357.68a.61.61,0,0,1-.85.17.6.6,0,0,1-.17-.84.61.61,0,0,1,.85-.18A.62.62,0,0,1,230.56,357.68Z" style="opacity:0.15"></path><path d="M231.69,361.94a.6.6,0,0,1-.84.17.61.61,0,1,1,.84-.17Z" style="opacity:0.15"></path><path d="M232.83,366.2a.61.61,0,1,1-.17-.85A.61.61,0,0,1,232.83,366.2Z" style="opacity:0.15"></path><path d="M235,349.77l-.12,0a9.7,9.7,0,0,0-7-.68.25.25,0,0,1-.3-.16.24.24,0,0,1,.15-.3,10.09,10.09,0,0,1,7.41.73.23.23,0,0,1,.08.32A.22.22,0,0,1,235,349.77Z" style="fill:#37474f"></path><path d="M236.13,354l-.12,0c-3.14-1.85-7-.7-7-.69a.24.24,0,0,1-.3-.15.24.24,0,0,1,.16-.3,10.09,10.09,0,0,1,7.4.72.24.24,0,0,1-.12.45Z" style="fill:#37474f"></path><path d="M237.26,358.29a.19.19,0,0,1-.12,0c-3.14-1.85-7-.69-7-.68a.24.24,0,0,1-.3-.16.23.23,0,0,1,.16-.29,10,10,0,0,1,7.4.72.24.24,0,0,1,.09.33A.27.27,0,0,1,237.26,358.29Z" style="fill:#37474f"></path><path d="M238.4,362.54a.24.24,0,0,1-.12,0c-3.14-1.85-7-.69-7-.68a.23.23,0,0,1-.29-.16.24.24,0,0,1,.15-.3,10.09,10.09,0,0,1,7.41.73.24.24,0,0,1,.08.33A.23.23,0,0,1,238.4,362.54Z" style="fill:#37474f"></path><path d="M239.53,366.8a.27.27,0,0,1-.12,0c-3.14-1.85-7-.7-7-.68a.25.25,0,0,1-.3-.16.24.24,0,0,1,.16-.3,10.09,10.09,0,0,1,7.41.73.23.23,0,0,1,.08.32A.22.22,0,0,1,239.53,366.8Z" style="fill:#37474f"></path><path d="M323.66,173.4c3.88,24.89-2,59.13-8.72,76.9a167.09,167.09,0,0,1-14.09,29c-2,3.45-59.37,60.82-59.37,60.82s-14-.29-15.28-14.47c0,0,25.06-37.23,30.22-45.54s22.37-23.55,22.37-23.55l2.75-78.49Z" style="fill:#455a64"></path><path d="M300.81,214.47s4.78-4,11.24-12.95c9.4-13,9.38-24.05,9.38-24.05l-5.28-.46H260.83c-1.47,17.84-2.1,26.49-.77,35.34,3.78,25,20.27,71.94,20.27,71.94-.29,3.46,1.76,17.23,5.06,30.14,5.21,20.36,13.71,56.49,13.71,56.49s15,3.38,19-5.55c0,0-6.39-69.67-8.51-87.6C307.33,258.37,300.81,214.47,300.81,214.47Z" style="fill:#455a64"></path><path d="M295.11,230.79s8.07,42.71,9.17,50.07,5.56,70.37,5.56,70.37-6.79-59.18-8.12-70.37S295.11,230.79,295.11,230.79Z" style="fill:#263238"></path><path d="M307.82,263.72s-5.61-43.49-7-49.25c0,0,10.45-4,13.66-7.63,0,0-2.29,5.1-9.77,9.64Z" style="fill:#263238"></path><path d="M273.2,262.87l7.13,21.42s.67,8.79,1.82,14.75l-3,3.1s-1.81-10.21-.86-17.34Z" style="fill:#263238"></path><polygon points="246.11 326.33 279.38 288.87 279.38 292.72 246.11 326.33" style="fill:#263238"></polygon><path d="M306.27,92.74c11.92-.66,15.92,8.24,22.82,18.86s21.72,37.88,21.72,37.88l36.52,3.22L396.28,167s-1.44,3.76-4.49,3.11a15.11,15.11,0,0,1-5.54-2.64c-32.86,1.41-32.84,1.41-39.32,1.5-5.09.06-7.93-.9-11.16-5.5-9.6-13.66-27-40.42-27-40.42Z" style="fill:#ffa8a7"></path><path d="M306.27,92.74s8.7-2.07,14.08,1.59,11.72,21.55,14.95,26.61S351,148.58,351,148.58c3.41.29,13.35.31,13.1,2.08,0,0-3.82,11.49-.05,18,0,0,.92,1-8.31.92-9.57-.1-15.16-.15-18.31-2.91s-29.3-38.06-29.3-38.06Z" style="fill:#ebebeb"></path><path d="M364.12,150.66A84.25,84.25,0,0,1,378,151.88a15.62,15.62,0,0,0-2.37,9.08c.15,5.64,1.11,6.86,1.11,6.86l-12.62.85s-2.51-2.57-2.07-9S364.12,150.66,364.12,150.66Z" style="fill:#e0e0e0"></path><path d="M351,148.58a16.94,16.94,0,0,0-5.58,8.88s4.52-6.94,9.28-8.67Z" style="fill:#e0e0e0"></path><path d="M325.6,122.47c-1.28-10.21-3.55-28.81-19.33-29.73l-22.55.72c-5,1.21-14.17,2.68-19.43,4.41-6.94,1.6-9.35,17.9-6.54,45.83L260.83,177c9.26,10.08,42.27,11.2,62.49-3.57C324.54,166,326.74,131.58,325.6,122.47Z" style="fill:#f5f5f5"></path><path d="M296.52,108.47s7.42,29.3,5.65,61.67c0,0,3-14.65.6-34.53S296.52,108.47,296.52,108.47Z" style="fill:#e0e0e0"></path><path d="M274.7,95.35c6.8,2.91,10.61,20.34,11.74,36.32s0,49.34,0,49.34h-5.29s.86-37.66-.25-47.82-3.37-31-12.16-36.56Z" style="fill:#455a64"></path><polygon points="281.01 142.73 287.25 141.2 287.23 144.91 281.01 146.53 281.01 142.73" style="fill:#37474f"></polygon><path d="M308.73,92.34c6.8,2.91,11.57,19.34,12.7,35.33s0,46,0,46L316.15,177s.87-37.66-.24-47.82-2.84-30.87-11.63-36.39Z" style="fill:#455a64"></path><path d="M260.52,180.75v-7.62s16.12,10.13,39.88,5.43c18.92-3.74,23.73-12.15,23.73-12.15l-.22,8.69s-6.68,9.69-25.42,12.24C282.17,189.55,269.92,186.49,260.52,180.75Z" style="fill:#37474f"></path><polygon points="315.91 136.26 322.15 134.74 322.13 138.44 315.91 140.07 315.91 136.26" style="fill:#37474f"></polygon><path d="M309.91,61.46l-3.75,15.28c-.9,3.54-3,5.35-6.6,5.35h-4.9V59Z" style="fill:#263238"></path><circle cx="276.82" cy="51.66" r="17.7" transform="translate(-3.74 27.53) rotate(-5.65)" style="fill:#263238"></circle><path d="M305.2,43.42a6.75,6.75,0,0,1,5.57,2c2.39,2.45.36,8.54-1.54,18.94l-5.85-.71Z" style="fill:#263238"></path><path d="M301.73,63.61c1.1.66,2.67-1.45,4-2.87s5.77-3.35,8,1.3-1.64,9.85-5,11.24c-4.73,2-6.45-1-6.45-1V95s-11,7.66-22.48,0l0-7.85a47.28,47.28,0,0,1-6.54.28c-3.94-.2-7.44.08-9.59-6.21-2.37-6.89-3.19-19.72-1-32.52,2.79-16.41,22.27-16.26,32.64-9.73S301.73,63.61,301.73,63.61Z" style="fill:#ffa8a7"></path><path d="M301.73,65.46c.56,0,2.65-3.47,4-4.72,1.89-1.72.72-18.66.72-18.66-1-12.78-17.7-9.34-27-11.14-5.93-1.14-13.37-3.38-17.29-2-5.78,2-5.67,8.73,0,14.44,2.88,2.89,8.52,4.38,12.66,4.88,7,.86,18.21-2.46,19.71-2.67,2-.28,2.47,1.7,3.57,7.09C299.08,57.4,299.88,65.42,301.73,65.46Z" style="fill:#263238"></path><path d="M305.19,44.63l6.64-3.56a3.67,3.67,0,0,0-5-1.66A4,4,0,0,0,305.19,44.63Z" style="fill:#263238"></path><path d="M279.81,87.19s9.72-2.13,13.16-4c2.3-1.22,5.4-7.29,6-8.65,0,0-1.46,6.55-3.52,9.18-2.51,3.22-15.6,6-15.6,6Z" style="fill:#f28f8f"></path><path d="M279.8,89v2.1s.09,3.76,6.34,4.44,7.23.68,7.39,1.33,1.87,6.17,1.87,6.17l-2.77-4.22A35.37,35.37,0,0,0,290.3,104c-.25,1.28-6.31.87-10.08-1.44-5-3-5.52-7.2-5.52-7.2a73,73,0,0,1,3.15-7,3,3,0,0,1,2-1.13Z" style="fill:#e0e0e0"></path><path d="M295.41,103s.11-6.27.69-7,3.1-1.7,4.3-3,1.87-4.47,1.87-6.46V83.23s1.23,0,1.75,1.84,2,6.82,2.25,7.67a11,11,0,0,1-2.53,8.06c-3,3.16-3.42,1.93-4,1.17s-2.79-4.2-2.79-4.2Z" style="fill:#e0e0e0"></path><path d="M281.08,61.79a2,2,0,1,0,2-2A2,2,0,0,0,281.08,61.79Z" style="fill:#263238"></path><path d="M283.17,54.35l4.22,2.33a2.54,2.54,0,0,0-1-3.36A2.36,2.36,0,0,0,283.17,54.35Z" style="fill:#263238"></path><path d="M280.58,75.27l-5.15,1.93a2.7,2.7,0,0,0,3.5,1.71A2.89,2.89,0,0,0,280.58,75.27Z" style="fill:#f28f8f"></path><path d="M263.88,56.47l3.85-3a2.34,2.34,0,0,0-3.35-.52A2.56,2.56,0,0,0,263.88,56.47Z" style="fill:#263238"></path><path d="M265.06,61.13a2,2,0,0,0,2,2,2,2,0,0,0,2-2.06,2,2,0,1,0-3.94,0Z" style="fill:#263238"></path><polygon points="274.5 59.99 274.23 71.87 267.97 69.95 274.5 59.99" style="fill:#f28f8f"></polygon><path d="M386.08,334.78a1.57,1.57,0,0,1-1.45-.95l-9.7-22.35a1.43,1.43,0,0,1-.08-.22l-15.3-57.74a1.59,1.59,0,0,1,3.07-.82l15.27,57.63,9.64,22.24a1.58,1.58,0,0,1-.82,2.08A1.55,1.55,0,0,1,386.08,334.78Z" style="fill:#BA68C8"></path><path d="M386.08,334.78a1.57,1.57,0,0,1-1.45-.95l-9.7-22.35a1.43,1.43,0,0,1-.08-.22l-15.3-57.74a1.59,1.59,0,0,1,3.07-.82l15.27,57.63,9.64,22.24a1.58,1.58,0,0,1-.82,2.08A1.55,1.55,0,0,1,386.08,334.78Z" style="opacity:0.5"></path><path d="M391.29,277.87l-2.91-1.69c-7.18-4.14-14-6.14-20-6.23h0l-.54,0a26.56,26.56,0,0,0-3.12.18c-9.51,1-15.52,3.86-21.1,11-.1.14-.21.26-.32.4s-.39.49-.56.74-.24.34-.36.51-.3.42-.43.63q-.4.62-.78,1.26c-.08.15-.16.31-.26.46s-.22.42-.34.64l0,.07a34.07,34.07,0,0,0-4.13,16.36v1.36q0,.95,0,1.92v3.37c0,29.19,20.48,64.67,45.75,79.26l2.92,1.69c7.18,4.14,14,6.14,20,6.22v0h.43c.4,0,.79,0,1.18,0H407c.34,0,.68,0,1-.09l.5-.05.27,0c9.83-1.07,16.07-4.24,21.62-11.83.24-.32.47-.65.7-1l.08-.12c.26-.39.47-.82.76-1.2,3-3.82,5.06-12.27,5.06-21.22v-3.37C437.05,327.94,416.57,292.46,391.29,277.87Zm-7.7,106.45c-23.85-13.77-43.18-47.26-43.18-74.79s19.33-38.71,43.18-24.94,43.19,47.26,43.19,74.8S407.44,398.09,383.59,384.32Z" style="fill:#455a64"></path><path d="M385.05,280.78l-2.92-1.69c-12.5-7.22-23.83-8-32.09-3.35a7,7,0,0,0-.63.38l-.16.09c-.26.16-.5.31-.74.48s-.49.33-.72.51a11.88,11.88,0,0,0-1.38,1.1c-.23.19-.45.39-.66.59a15.35,15.35,0,0,0-1.27,1.28c-.21.22-.41.45-.6.68l-.58.71c-.2.24-.39.49-.56.74s-.24.34-.36.51-.3.42-.43.63q-.4.62-.78,1.26c-.08.15-.16.31-.26.46s-.22.42-.34.64l-.31.63a26.2,26.2,0,0,0-1.06,2.41c-.18.45-.35.89-.5,1.34,0,0,0,0,0,.06-.28.82-.54,1.68-.77,2.55-.13.48-.24,1-.36,1.45s-.24,1.12-.35,1.69c0,.27-.09.54-.14.82-.08.46-.14.94-.21,1.41s-.13,1.06-.19,1.61l0,.26-.12,1.41,0,.57c0,.52-.06,1.05-.07,1.58s0,1.27,0,1.92v3.37c0,29.19,20.48,64.67,45.75,79.26l2.92,1.69c7.35,4.23,14.28,6.24,20.43,6.24.4,0,.79,0,1.18,0H407c.34,0,.68,0,1-.09l.5-.05c.34,0,.68-.08,1-.14s.6-.09.89-.15.58-.11.85-.18c.55-.13,1.09-.28,1.61-.45l.66-.21c.26-.08.5-.17.73-.26s.42-.16.62-.26c.44-.18.87-.37,1.3-.59a6.35,6.35,0,0,0,.63-.33l.17-.09a1.49,1.49,0,0,0,.24-.14c.14-.06.27-.15.4-.22,8.13-4.85,13.14-15,13.14-29.46V360C430.81,330.85,410.32,295.36,385.05,280.78Zm-1.46,103.54c-23.85-13.77-43.18-47.26-43.18-74.79s19.33-38.71,43.18-24.94,43.19,47.26,43.19,74.8S407.44,398.09,383.59,384.32Z" style="fill:#37474f"></path><path d="M415.71,377.26c-6.83,8.12-18.66,9.28-32.12,1.52-21.2-12.24-38.39-42-38.39-66.49,0-10.94,3.44-19,9.13-23.42-4,4.69-6.27,11.69-6.27,20.66,0,24.47,17.19,54.24,38.39,66.49C398.17,382.79,408.67,382.77,415.71,377.26Z" style="fill:#BA68C8"></path><path d="M415.71,377.26c-6.83,8.12-18.66,9.28-32.12,1.52-21.2-12.24-38.39-42-38.39-66.49,0-10.94,3.44-19,9.13-23.42-4,4.69-6.27,11.69-6.27,20.66,0,24.47,17.19,54.24,38.39,66.49C398.17,382.79,408.67,382.77,415.71,377.26Z" style="opacity:0.2"></path><path d="M383.59,284.59c-23.85-13.77-43.18-2.6-43.18,24.93s19.33,61,43.18,74.8,43.18,2.61,43.18-24.93S407.44,298.36,383.59,284.59Zm0,94.19c-21.2-12.24-38.38-42-38.38-66.48s17.18-34.41,38.38-22.17,38.39,42,38.39,66.49S404.79,391,383.59,378.78Z" style="fill:#BA68C8"></path><path d="M420.68,344.44c-.09-.43-.18-.87-.28-1.3l-33.43-9,29.87-2.67c-.15-.38-.29-.76-.45-1.14l-30.19,2.69,24.58-14.19c-.19-.34-.4-.67-.6-1L385.61,332,403,307.37l-.77-1L385,330.82l8.87-33.11-1-.88-8.73,32.57V290.49l-.59-.36-.59-.32v38.24l-8.58-41.93c-.43-.12-.85-.24-1.28-.34l8.47,41.37-16.38-42.22c-.42,0-.82.06-1.23.1L380.27,327l-23-39.91c-.35.18-.69.37-1,.57l23.05,39.92-28.31-35.21c-.25.32-.48.65-.72,1l28.53,35.49-31.92-28.3c-.12.41-.25.83-.36,1.25l32.38,28.71-33.61-19.4c0,.41,0,.82,0,1.24v.11l34.2,19.75-33.14-8.88c.08.43.16.86.25,1.29l33.7,9-30.3,2.7c.14.39.29.77.44,1.15L381,334.72l-25.06,14.46c.19.35.38.69.58,1l25.07-14.47L363.8,361l.77,1,17.59-25L373,371c.33.3.65.6,1,.89l9-33.49v40l.59.36.59.32V339.72L393,382.87l1.27.33-8.71-42.57L402.38,384c.41,0,.82-.06,1.22-.11l-16.68-43,23.54,40.78c.35-.19.68-.4,1-.61l-23.53-40.76L416.69,376c.24-.34.48-.67.7-1l-28.95-36,32.18,28.53c.11-.42.22-.85.32-1.29l-32.59-28.9L422,356.73s0-.07,0-.11c0-.42,0-.84,0-1.27l-34.18-19.73Z" style="fill:#ebebeb"></path><path d="M385.42,322.67c-2.64-1.53-5-1.62-6.71-.56-.35.23-.78.42-1.23.69-.13.07-.24.15-.36.23l-.07,0,0,0a4,4,0,0,0-.45.37l-.1.1a4.89,4.89,0,0,0-.37.41l-.12.16c-.1.14-.2.28-.29.43l-.14.25c-.07.14-.15.28-.21.43s-.09.23-.14.35l-.15.42-.12.46-.09.41c0,.19-.06.4-.09.6s0,.23,0,.35c0,.33-.05.67-.05,1,0,5.94,4.17,13.16,9.32,16.13.32.19.63.35.95.5l.55.22.38.15.38.1c.17.05.35.11.53.15l.2,0c.23,0,.45.08.67.1h0a5,5,0,0,0,3-.71c.45-.27.85-.46,1.36-.77,1.64-1,2.65-3.05,2.65-6C394.74,332.87,390.56,325.64,385.42,322.67Zm-2.66,17.9c-1.59-1.25-3.83-5-4.71-7.12a16.34,16.34,0,0,0,1.63,1c2.42,1.25,2.36-.45,3.34.73s.8,4.07,0,5.56A1.46,1.46,0,0,1,382.76,340.57Zm4.72-11-.39.18-1.43.82a1.72,1.72,0,0,0-.71.71,12.92,12.92,0,0,1-2.48-7c2.08.71,5.55,3.61,6.08,4.73a1.24,1.24,0,0,1,.1.26A5.9,5.9,0,0,0,387.48,329.53Zm-7.06-1.23c.78,2.82,2,3.25,2,4.17-1.83-.3-4.81-2.08-5-3.85a7.11,7.11,0,0,1,1.61-4.72C379.83,324.24,379.78,326,380.42,328.3Zm5.26,14.77c-1-.89.11-1.75.61-3.59a5.11,5.11,0,0,0,0-2.67c1.9,1.51,4.77,5.46,4,6.63l-.09.12C388.6,344,386.36,343.7,385.68,343.07Zm4.55-6.12c-2-2.71-2.83-1.78-3.32-3.22a1.84,1.84,0,0,1,.66-1.94,2.38,2.38,0,0,1,2.93,1,17.69,17.69,0,0,1,1.59,7C391.6,339,391,338,390.23,337Z" style="fill:#e0e0e0"></path><path d="M385.42,322.67c-2.64-1.53-5-1.62-6.71-.56-.35.23-.78.42-1.23.69-.13.07-.24.15-.36.23l-.07,0,0,0a4,4,0,0,0-.45.37l-.1.1a4.89,4.89,0,0,0-.37.41l-.12.16c-.1.14-.2.28-.29.43l-.14.25c-.07.14-.15.28-.21.43s-.09.23-.14.35l-.15.42-.12.46-.09.41c0,.19-.06.4-.09.6s0,.23,0,.35c0,.33-.05.67-.05,1,0,5.94,4.17,13.16,9.32,16.13.32.19.63.35.95.5l.55.22.38.15.38.1c.17.05.35.11.53.15l.2,0c.23,0,.45.08.67.1h0a5,5,0,0,0,3-.71c.45-.27.85-.46,1.36-.77,1.64-1,2.65-3.05,2.65-6C394.74,332.87,390.56,325.64,385.42,322.67Zm-2.66,17.9c-1.59-1.25-3.83-5-4.71-7.12a16.34,16.34,0,0,0,1.63,1c2.42,1.25,2.36-.45,3.34.73s.8,4.07,0,5.56A1.46,1.46,0,0,1,382.76,340.57Zm4.72-11-.39.18-1.43.82a1.72,1.72,0,0,0-.71.71,12.92,12.92,0,0,1-2.48-7c2.08.71,5.55,3.61,6.08,4.73a1.24,1.24,0,0,1,.1.26A5.9,5.9,0,0,0,387.48,329.53Zm-7.06-1.23c.78,2.82,2,3.25,2,4.17-1.83-.3-4.81-2.08-5-3.85a7.11,7.11,0,0,1,1.61-4.72C379.83,324.24,379.78,326,380.42,328.3Zm5.26,14.77c-1-.89.11-1.75.61-3.59a5.11,5.11,0,0,0,0-2.67c1.9,1.51,4.77,5.46,4,6.63l-.09.12C388.6,344,386.36,343.7,385.68,343.07Zm4.55-6.12c-2-2.71-2.83-1.78-3.32-3.22a1.84,1.84,0,0,1,.66-1.94,2.38,2.38,0,0,1,2.93,1,17.69,17.69,0,0,1,1.59,7C391.6,339,391,338,390.23,337Z" style="opacity:0.2"></path><path d="M384,323.48c-5.15-3-9.32-.56-9.32,5.38S378.84,342,384,345s9.3.56,9.3-5.38S389.13,326.45,384,323.48Zm-2.31.64c1.84,0,6.26,3.61,6.87,4.89s-1,.81-2.49,1.33c-1.88.67-1,2.49-2.1,2C382.34,331.7,379.84,324.09,381.68,324.12Zm-2.78-.29c1,.16.84,2,1.52,4.47.86,3.11,2.21,3.31,2,4.47-.28,1.71-6.14-.84-6.42-3.34S378,323.67,378.9,323.83Zm2.43,17.54c-2-1.57-5.06-7.18-5.09-8.35s1.53.44,3.44,1.43c2.42,1.25,2.36-.45,3.34.73C384.47,336.9,383.35,342.94,381.33,341.37Zm9,2.07c-1,1.53-5.07,1.32-6,.44s.12-1.75.61-3.6c.63-2.33-.75-3.58.05-4C386.08,335.63,391.25,341.91,390.29,343.44Zm-1.48-5.69c-2-2.7-2.83-1.77-3.32-3.22-.73-2.11,3.59-4.27,5-1.76s1.94,8,1.36,8.63S390.4,339.87,388.81,337.75Z" style="fill:#e0e0e0"></path><path d="M383.59,339.54c2.43,1.41,4.4.27,4.4-2.54a9.75,9.75,0,0,0-4.4-7.63c-2.43-1.4-4.4-.26-4.4,2.55A9.73,9.73,0,0,0,383.59,339.54Z" style="fill:#455a64"></path><path d="M407.59,286.93l-2,1.78a75.55,75.55,0,0,0-14.26-10.83l-2.92-1.69c-7.18-4.16-14-6.15-20-6.24h0l-.53,0a26.56,26.56,0,0,0-3.12.18c-9.51,1-15.52,3.86-21.1,11l-.32.39c-.2.25-.39.49-.57.74l-.35.51c-.16.21-.3.42-.44.63-.26.41-.52.82-.76,1.26-.09.14-.17.31-.27.47s-.22.41-.33.63a.25.25,0,0,0,0,.07,34.07,34.07,0,0,0-4.13,16.36v1.36q0,.95,0,1.92v3.37c0,9.63,2.23,20,6.13,30l-1.69,1.23s-8.34-17.32-9.4-36.58,9-34.57,29.23-38.33S407.59,286.93,407.59,286.93Z" style="fill:#BA68C8"></path><path d="M407.59,286.93l-2,1.78a75.55,75.55,0,0,0-14.26-10.83l-2.92-1.69c-7.18-4.16-14-6.15-20-6.24h0l-.53,0a26.56,26.56,0,0,0-3.12.18c-9.51,1-15.52,3.86-21.1,11l-.32.39c-.2.25-.39.49-.57.74l-.35.51c-.16.21-.3.42-.44.63-.26.41-.52.82-.76,1.26-.09.14-.17.31-.27.47s-.22.41-.33.63a.25.25,0,0,0,0,.07,34.07,34.07,0,0,0-4.13,16.36v1.36q0,.95,0,1.92v3.37c0,9.63,2.23,20,6.13,30l-1.69,1.23s-8.34-17.32-9.4-36.58,9-34.57,29.23-38.33S407.59,286.93,407.59,286.93Z" style="opacity:0.30000000000000004"></path><path d="M411.28,287.27a17.19,17.19,0,0,1-5.85,4.41.38.38,0,0,1-.17.08,19.65,19.65,0,0,1-2.55,1,.76.76,0,0,1-.16,0,97.46,97.46,0,0,0-18.68-15.26c-27.77-16.84-50.43-8.39-50.56,27.41,0,10.79,3.07,24.53,7.51,35.14a7.64,7.64,0,0,1-3.59-1.47c-4.22-11-6.65-22.29-6.65-32.84v-3.74c0-.72,0-1.45,0-2.13V298.4a37.93,37.93,0,0,1,4.58-18.18l0-.07c.13-.25.25-.49.38-.71s.2-.35.3-.51c.27-.49.56-.94.85-1.4a6.67,6.67,0,0,1,.48-.7,5.89,5.89,0,0,1,.41-.57,7.68,7.68,0,0,1,.62-.82c.11-.15.23-.29.36-.45a4.19,4.19,0,0,1,.28-.34c6.11-7.7,12.74-10.8,23.15-11.9a30.36,30.36,0,0,1,3.47-.21h.58c6.72.1,14.26,2.31,22.23,6.93l3.25,1.87A87.06,87.06,0,0,1,411.28,287.27Z" style="fill:#BA68C8"></path><path d="M411.28,287.27a17.19,17.19,0,0,1-5.85,4.41.38.38,0,0,1-.17.08,19.65,19.65,0,0,1-2.55,1,.76.76,0,0,1-.16,0,97.46,97.46,0,0,0-18.68-15.26c-27.77-16.84-50.43-8.39-50.56,27.41,0,10.79,3.07,24.53,7.51,35.14a7.64,7.64,0,0,1-3.59-1.47c-4.22-11-6.65-22.29-6.65-32.84v-3.74c0-.72,0-1.45,0-2.13V298.4a37.93,37.93,0,0,1,4.58-18.18l0-.07c.13-.25.25-.49.38-.71s.2-.35.3-.51c.27-.49.56-.94.85-1.4a6.67,6.67,0,0,1,.48-.7,5.89,5.89,0,0,1,.41-.57,7.68,7.68,0,0,1,.62-.82c.11-.15.23-.29.36-.45a4.19,4.19,0,0,1,.28-.34c6.11-7.7,12.74-10.8,23.15-11.9a30.36,30.36,0,0,1,3.47-.21h.58c6.72.1,14.26,2.31,22.23,6.93l3.25,1.87A87.06,87.06,0,0,1,411.28,287.27Z" style="fill:#fff;opacity:0.5"></path><path d="M405.43,291.68h0a.51.51,0,0,1-.17.07,8.57,8.57,0,0,1-2.55,1,.76.76,0,0,1-.16,0,97.46,97.46,0,0,0-18.68-15.26c-27.77-16.84-50.43-8.39-50.56,27.41,0,10.79,3.07,24.53,7.51,35.14a7.64,7.64,0,0,1-3.59-1.47c-4.22-11-6.65-22.29-6.65-32.84v-3.74c0-.72,0-1.45,0-2.13s.05-1.19.09-1.77c0-.21,0-.42,0-.63,0-.52.09-1,.14-1.56l0-.29c.06-.61.13-1.2.22-1.79s.13-1.06.23-1.57c0-.31.1-.61.15-.91.11-.63.25-1.27.39-1.88s.26-1.08.4-1.6c.26-1,.54-1.93.85-2.85,0,0,0,0,0-.05.16-.51.35-1,.55-1.49a27.12,27.12,0,0,1,1.18-2.68l.3-.63,0-.07c.13-.25.25-.49.38-.71s.2-.35.3-.51c.27-.49.56-.94.85-1.4a6.67,6.67,0,0,1,.48-.7,5.89,5.89,0,0,1,.41-.57,7.68,7.68,0,0,1,.62-.82c.11-.15.23-.29.36-.45a4.19,4.19,0,0,1,.28-.34c.22-.26.43-.52.67-.76a15.86,15.86,0,0,1,1.41-1.43l.72-.65a15.83,15.83,0,0,1,1.54-1.22c.27-.2.53-.39.8-.56s.55-.35.82-.54a.81.81,0,0,0,.18-.1c.23-.15.47-.29.7-.42,9.18-5.13,21.77-4.3,35.66,3.72l3.24,1.88A88.88,88.88,0,0,1,405.43,291.68Z" style="fill:#BA68C8"></path><path d="M383.59,336.34a1.58,1.58,0,0,1-1.19-.54l-15.52-17.64a1.53,1.53,0,0,1-.34-.64l-15.3-57.75a1.58,1.58,0,1,1,3.06-.81l15.2,57.38,15.28,17.37a1.58,1.58,0,0,1-1.19,2.63Z" style="fill:#BA68C8"></path><path d="M383.59,336.34a1.58,1.58,0,0,1-1.19-.54l-15.52-17.64a1.53,1.53,0,0,1-.34-.64l-15.3-57.75a1.58,1.58,0,1,1,3.06-.81l15.2,57.38,15.28,17.37a1.58,1.58,0,0,1-1.19,2.63Z" style="opacity:0.30000000000000004"></path><path d="M354.44,256.59l-6.22-59.4c-.09-1.17,4.13-1.48,4.21-.31l6.22,59.4C358.74,257.44,354.52,257.7,354.44,256.59Z" style="fill:#BA68C8"></path><path d="M354.44,256.59l-6.22-59.4c-.09-1.17,4.13-1.48,4.21-.31l6.22,59.4C358.74,257.44,354.52,257.7,354.44,256.59Z" style="opacity:0.30000000000000004"></path><path d="M353.24,245.16a55.66,55.66,0,0,1,.51,6.59c-.07,1.89-3.74,4.76-2.57,8.5s2.72,9.52,2.72,9.52a2.23,2.23,0,0,0,3-1.22l-1.53-5.75a4.33,4.33,0,0,1,1.59-4.58l.62-.47A2.23,2.23,0,0,1,361,259l1.06,3.8a26.43,26.43,0,0,1,3.15-.22s-1.81-7.34-2.73-10.36c-.73-2.38-4.51-1.18-4.72-4.29l-.42-4C357.47,245.45,354.1,246.49,353.24,245.16Z" style="fill:#37474f"></path><path d="M352.43,196.88c-.08-1.17-4.3-.86-4.21.31l1.57,15a10.38,10.38,0,0,0,4.42,1.68Z" style="opacity:0.15"></path><path d="M395.59,173l-3.37-5.82,14.23-8.21h0a1.64,1.64,0,0,1,1.7.15,5.26,5.26,0,0,1,2.38,4.11,1.7,1.7,0,0,1-.67,1.52h0l0,0h0Z" style="fill:#455a64"></path><path d="M396.28,171.43c0,1.51-1.06,2.13-2.38,1.37a5.25,5.25,0,0,1-2.37-4.11c0-1.52,1.06-2.13,2.37-1.37A5.22,5.22,0,0,1,396.28,171.43Z" style="fill:#37474f"></path><path d="M394.92,170.63a.92.92,0,0,1-.18.61l-.36.2-18.59,10.73a7,7,0,0,0-3.49,6.07,10.2,10.2,0,0,1-5.09,8.8l-12.88,7.44-1.58-2.75,12.88-7.44a7,7,0,0,0,3.5-6,10.2,10.2,0,0,1,5.08-8.81l18.67-10.77.19-.12a.87.87,0,0,1,.71.12A2.54,2.54,0,0,1,394.92,170.63Z" style="fill:#e0e0e0"></path><path d="M363.83,200.63a3.4,3.4,0,0,0-2-2.64l-8.3-4.8-8.58,5v4.95l8.31,4.8a9.81,9.81,0,0,0,8.87.16,2.83,2.83,0,0,0,1.68-2.48S363.85,201.54,363.83,200.63Z" style="fill:#37474f"></path><path d="M353.54,193.19l8.3,4.8c2.53,1.45,2.66,3.75.29,5.12a9.84,9.84,0,0,1-8.87-.17l-8.3-4.79Z" style="fill:#455a64"></path><path d="M352.33,205.11a.89.89,0,0,1-.22.65l-.23.14h0l-10.39,6c-2.17,1.26-3.67.91-4.54.4s-2.13-1.88-2.13-5c0-1.6-.39-2.19-.55-2.27s-.61,0-1.37.4l-30.05,17.35L301.24,220l30-17.36c2.17-1.24,3.67-.91,4.55-.4s2.13,1.89,2.13,5c0,1.62.39,2.19.54,2.28s.61,0,1.37-.41l10.46-6h0l.14-.08a.81.81,0,0,1,.72.11A2.49,2.49,0,0,1,352.33,205.11Z" style="fill:#e0e0e0"></path><path d="M300,226.52l-3.37-5.81,14.23-8.22h0a1.67,1.67,0,0,1,1.7.15,5.24,5.24,0,0,1,2.38,4.12,1.69,1.69,0,0,1-.67,1.51h0l0,0h0Z" style="fill:#455a64"></path><path d="M300.66,225c0,1.52-1.06,2.13-2.37,1.37a5.21,5.21,0,0,1-2.38-4.11c0-1.51,1.06-2.13,2.38-1.37A5.25,5.25,0,0,1,300.66,225Z" style="fill:#263238"></path><path d="M368.45,209.91c-1.72-.93-10.59-1.79-15,.82s3.1,11.27,6.64,13.31Z" style="fill:#BA68C8"></path><path d="M368.45,209.91c-1.72-.93-10.59-1.79-15,.82s3.1,11.27,6.64,13.31Z" style="fill:#fff;opacity:0.5"></path><path d="M364.38,210.34c3.21-1.86,5.82-.36,5.82,3.35a12.88,12.88,0,0,1-5.82,10.08c-3.21,1.85-5.82.35-5.82-3.36A12.85,12.85,0,0,1,364.38,210.34Z" style="fill:#BA68C8"></path><path d="M364.38,210.34c3.21-1.86,5.82-.36,5.82,3.35a12.88,12.88,0,0,1-5.82,10.08c-3.21,1.85-5.82.35-5.82-3.36A12.85,12.85,0,0,1,364.38,210.34Z" style="fill:#fff;opacity:0.8"></path><path d="M364.38,214c1.44-.83,2.61-.15,2.61,1.51a5.76,5.76,0,0,1-2.61,4.51c-1.44.83-2.6.16-2.6-1.5A5.75,5.75,0,0,1,364.38,214Z" style="fill:#BA68C8"></path><path d="M298.93,204.09s-32.87-27.2-33.43-27.53,2.37-57.7,2.37-57.7-.2-13.69-4.26-20.45c-8,1.31-14.92,4.94-16.64,19.61s-2.95,56.13-3.19,59.85-.72,7.51,6.21,12.58c8.05,5.9,8.16,5.73,40.95,25.48Z" style="fill:#ffa8a7"></path><path d="M264.29,97.87s-9.05.79-13.23,7.34c-5.73,9-5.7,23.35-7.39,46.62-1.15,15.68-3.18,31.13,1,35s16.64,13.26,19.57,14.72,3.11.14,3.11.14S267.14,191,279,187.43c0,0,.94-1.52-4.89-6.05-3.15-2.44-7.5-5.75-7.5-5.75l2.76-48.83a8.81,8.81,0,0,0,0-.89C269.3,123.24,268.72,103.72,264.29,97.87Z" style="fill:#ebebeb"></path><path d="M274.74,186.76c-.61-.8-6.89-1.75-5.36-3s4.74-1.85,5.8-1.5l-1.09-.88-2-1.56c-.46-.18-1-.37-1.59-.56-4.38-1.39-23.14-.38-28.19-.08.25,3.56,1,6.23,2.36,7.58a13.51,13.51,0,0,1,4.33-1.43c3.25-.43,9.36,2.82,11.22,3.5a21.3,21.3,0,0,0,8.29,1.16c3-.28,3.53.16,5.64-.52S275.35,187.56,274.74,186.76Z" style="opacity:0.05"></path><path d="M267.39,201.69a42.49,42.49,0,0,0,8.8,5.29,15.46,15.46,0,0,1,10.75-12.8,59.88,59.88,0,0,0-8-6.75s-4.48-.42-8.69,5.16A13.74,13.74,0,0,0,267.39,201.69Z" style="fill:#e0e0e0"></path><path d="M294,201.74c4.93,3,14.48,5.16,17.92,7.8s4.67,10,3,12.84-9.16,6.36-11.76,5.68-2.67-1.81-2.67-1.81l2-1.16c1.37-.84.82-5.69-2.68-6.21l-3.44,2c-1.71-.26-5.29-3.77-6.39-7Z" style="fill:#ffa8a7"></path><path d="M387.33,152.7c4.89.26,15.32,1.72,18.76,4.36s4.6,9.47,2.91,12.36-8.14,6-10.73,5.31-2.67-1.81-2.67-1.81l2-1.16s1.41-6.41-2.68-6.21l-2.72,1.57-3.09-4.19Z" style="fill:#ffa8a7"></path></g><g id="freepik--character-1--inject-1--inject-47"><ellipse cx="172.44" cy="69.17" rx="41.23" ry="28.65" transform="translate(-6.6 118.81) rotate(-37.35)" style="fill:#BA68C8"></ellipse><path d="M155.47,102.71c6.45-2.68,12-7.95,13.9-14.65a39,39,0,0,0,1.06-9.54c.07-2.56.13-5.21-.82-7.59-.85-2.11-2.42-3.83-3.75-5.68A33.36,33.36,0,0,0,162,60.16c-2.73-2.57-6.64-3.1-9.11-.11a24.8,24.8,0,0,0-5.58,16.76,6.41,6.41,0,0,1-.16,2.43c-.43,1.25-1.65,2-2.63,2.92a15.83,15.83,0,0,0-4.11,6.23,26.8,26.8,0,0,0-1.11,5.25c.13.18.25.37.39.54C143.36,99,149,101.84,155.47,102.71Z" style="opacity:0.1"></path><path d="M188.47,59.3c4.93-4.56,18.57-3.95,20.32,6.14,2.42,13.93-6.5,20.58-6.5,20.58a69.85,69.85,0,0,1,6.34,9.76c2.29,4.65,1.38,9.76-1.79,11.72a15.25,15.25,0,0,1,3.39,12.17c-1.14,8.88-8.29,9-8.29,9l-26.11-2.16Z" style="fill:#263238"></path><path d="M152.93,80.8c-.55,1.92-6.8,9.32-8.2,13.88-2.1,6.81,3.56,9.46,3.56,9.46s-5.11,2.43-6.73,7.38c-1.29,4-.49,10.18,7.49,11,7.4.78,20.39-1.46,20.39-1.46V80.8Z" style="fill:#263238"></path><path d="M160.63,54.64a8.94,8.94,0,0,0-4.25,1.1,11.7,11.7,0,0,0-4.33,5.93,22.43,22.43,0,0,0-1.18,9,42.88,42.88,0,0,0,2.94,13.54c2,5,10.88,7.28,16,5.64s22-8.34,26.11-15.07c3.41-5.64,3.13-8.81,3.13-8.82,1.88-11.2-5.39-16.25-13.33-15.24A23,23,0,0,0,180,52.38c-3.35,1.47-6.77,3.13-10.43,3.27a29.75,29.75,0,0,1-5.84-.81A15.2,15.2,0,0,0,160.63,54.64Z" style="fill:#263238"></path><path d="M161.08,56.34c-3.45-.42-5.09,1.77-4,3.71s4.57,3.66,8.67,2.88,3.52-3.9.32-5a4.76,4.76,0,0,0-4.19.6s3.38-1,4.41,1c.67,1.34-1.49,2.64-4.85,1.65-1.44-.42-3-1.52-3-3C158.44,57.47,159.31,56.37,161.08,56.34Z" style="fill:#37474f"></path><path d="M193.59,70c-2,.61-4.78-1.84-8.39-5s-10.49-1.88-11.71,3.67-.51,10.1-2.41,13.15C176.83,81.94,193.59,70,193.59,70Z" style="fill:#263238"></path><path d="M274.22,181.56l1.07.74c.88-3.87-6.32-8.35-12-10.4s-43.79-7.14-43.79-7.14-3.43-12.94-8.61-30-12.86-18.19-18.11-18V143s11.21,25.66,14,32.38c2,4.77,6,6,10.46,5.93,6.79,0,30.07.46,34.18,1.68l1.19.36h0c3.5.89,7.09,3.75,10.61,4.55a17.9,17.9,0,0,0,2.92.34c1.25.06,2.51.07,3.77.07l4.07,0a1.57,1.57,0,0,0,.53-.06,1.08,1.08,0,0,0,.61-1.23,2.4,2.4,0,0,0-.81-1.23c-1.42-1.28-3.33-1.83-5.11-2.52a1.55,1.55,0,0,1-1-.8C271.73,180.34,274.22,181.56,274.22,181.56Z" style="fill:#ffa8a7"></path><path d="M203.16,198.71c.31,9.21,1.93,47.21-4.78,64.82a164.4,164.4,0,0,1-14,28.74c-2,3.43-60.85,60.23-60.85,60.23s-1.15,3.76-3.08,4.47c-2.94,1.1-12.59-1.63-8.13-7.06,24.51-48.1,24.48-48.12,29.8-56.69,5.11-8.23,23.23-20.86,23.23-20.86l-1.64-81.66Z" style="fill:#ffa8a7"></path><path d="M107.26,358c-1.06,2.88-2.93,11.38-2.93,11.38a12.41,12.41,0,0,0,1.79,2.49l4.57-9.5Z" style="fill:#263238"></path><polygon points="106.12 371.82 111.48 370.11 116.25 363.75 109.81 363.74 106.12 371.82"></polygon><path d="M123.1,354.41l1.24-1.51c-1.22,6.24-.14,11.75.7,19.07a8.44,8.44,0,0,0,.87,2.91c1.36,5.71,5.15,10.31,6,13.13,1.28,4.22-5.5,5.15-13.17.92-5.07-2.79-6.87-5.26-7.83-9,0-3.6.12-11.2-1.07-13.45a21,21,0,0,1-2.58-8.5,9.62,9.62,0,0,1,1.95-6.61c1.57-2,3.46-4.43,4.23-3.6l-.41.88a8.44,8.44,0,0,0,5.15,6.36A4,4,0,0,0,123.1,354.41Z" style="fill:#37474f"></path><path d="M126.55,377.05c-1.22-1.28-5.15-1.75-8.72.15,0,0,1.18,3.4,3.78,4.52,3.16,1.36,7.12.21,6.3-1.51S126.55,377.05,126.55,377.05Z" style="fill:#ffa8a7"></path><path d="M125.18,356.53c1.16-6,4.53-10,7.95-13.3l-2.88-5.8-.83.52c2.18-8.09,4.63-17.09,4.93-18.66L113,348.62a44.27,44.27,0,0,0,0,5.39c.08,1.23,1,7.46,1.65,11,.55,2.93,1.14,7.75,2.36,9.73,3-1.51,7.83-1.33,8.88.15-.71-2.63-1.16-9.61-1.12-13.41A42.92,42.92,0,0,1,125.18,356.53Z" style="fill:#ffa8a7"></path><path d="M114.46,345.41l-2.82,3a11.81,11.81,0,0,0,6.51,6.13c4.88,1.88,7.22,1.09,7.22,1.09l1.62-4.48A15.67,15.67,0,0,1,114.46,345.41Z" style="fill:#37474f"></path><path d="M201.93,391.89l-1.52-11.63s-6.67-72-8.77-89.77c-2.28-19.24-8.8-63.68-8.8-63.68s4.74-4,11.14-12.83c9.32-12.88,7.89-24.31,7.89-24.31h-3.82l-50.42,1c-5,8.2-6.09,20.62-4.4,32.72,3.51,25.12,24.31,73,24.31,73-.29,3.44-1.74,17.88,1.53,30.68,5.17,20.19,19,55.14,19,55.14h0l4,11.79Z" style="fill:#ffa8a7"></path><path d="M187.21,395.54c.15,3.06,1.78,11.62,1.78,11.62a12.13,12.13,0,0,0,2.62,1.58l.47-10.53Z" style="fill:#263238"></path><polygon points="191.61 408.74 195.86 405.06 197.75 397.34 191.82 399.86 191.61 408.74"></polygon><path d="M200.38,386.06l.55-1.87c1.33,6.21,6.41,10.75,10.07,17.15a8.39,8.39,0,0,0,1.94,2.34c3.49,4.71,8.79,7.45,10.67,9.7,2.84,3.38-3,6.9-11.75,6-5.75-.58-8.38-2.14-10.74-5.23-1.44-3.29-6.22-10.23-8.2-11.84-2.28-1.85-4.93-4.42-5.71-6.8a13.07,13.07,0,0,1-.15-6.63c.62-2.2.84-5.08,1.59-4.86l.37,1.12c.61,1.15,2.73,3.23,7.06,3.35C198.14,388.58,199.48,388,200.38,386.06Z" style="fill:#37474f"></path><path d="M189,385.17c.32.94,1.52,2.47,2.53,4.48a56.82,56.82,0,0,0,5.57,8.93c1.85,2.33,5.69,7.1,7.59,8.44,2.16-2.56,6.68-4.29,8.23-3.35a91.6,91.6,0,0,1-7.42-11.85c-1.35-2.78-2.8-4.93-4-9.55-.51-1.94-2.22-17.07-4-32.83Z" style="fill:#ffa8a7"></path><path d="M189.64,386.71s9.57.5,12.61-2L201,379.47s-3.13,3.36-13.34,1.76a17,17,0,0,1,0,5.08Z" style="fill:#37474f"></path><path d="M214.38,405.41c-1.63-.69-5.43.42-8,3.57,0,0,1.73,2.8,6.12,2.24,3.4-.44,5.67-2.27,4.23-3.52S214.38,405.41,214.38,405.41Z" style="fill:#ffa8a7"></path><path d="M190.1,278.71s-5.88-46.18-7.26-51.9c0,0,10.36-3.94,13.54-7.56,0,0-2.27,5.06-9.68,9.56Z" style="fill:#f28f8f"></path><path d="M165.19,297.57c-1.62,6-1.46,16-1.46,16l3.27-2.86c-.09-2.39.54-14.22.54-14.22-2.51-3.43-8-19.76-8-19.76Z" style="fill:#f28f8f"></path><path d="M154.92,181s-11.57,6.74-21.26,26.89c-5.68,11.81-27.14,69.17-31,88.39,0,0,9.18,11.92,25.21,11.62,0,0,.85,6.27,10.15,10.06,9.72,3.95,16.47-.42,16.47-.42s3.4,8,14.72,8,13.19-5.82,13.19-5.82,5.11,5.19,15.73,2.26a16.09,16.09,0,0,0,10.74-9.36s16.46,2.54,22.92-7.83c-.24-15-20.41-92.41-33.3-122.49Z" style="fill:#BA68C8"></path><path d="M154.92,181s-11.57,6.74-21.26,26.89c-5.68,11.81-27.14,69.17-31,88.39,0,0,9.18,11.92,25.21,11.62,0,0,.85,6.27,10.15,10.06,9.72,3.95,16.47-.42,16.47-.42s3.4,8,14.72,8,13.19-5.82,13.19-5.82,5.11,5.19,15.73,2.26a16.09,16.09,0,0,0,10.74-9.36s16.46,2.54,22.92-7.83c-.24-15-20.41-92.41-33.3-122.49Z" style="opacity:0.30000000000000004"></path><path d="M121.58,307.39h0a29.9,29.9,0,0,0,6.27.52S143,224.07,154.92,200.36C154.92,200.36,140,231.08,121.58,307.39Z" style="opacity:0.15"></path><path d="M149.1,319.38a15.35,15.35,0,0,0,5.37-1.83s3.26-54.14,7.25-83.18C161.72,234.37,151.12,291.22,149.1,319.38Z" style="opacity:0.15"></path><path d="M187.48,322.37c-.25-37.76-4.64-104.72-4.64-104.72,1.29,30.87-.46,102.12-.46,102.12A11.77,11.77,0,0,0,187.48,322.37Z" style="opacity:0.15"></path><path d="M214.8,312.91c-.93-11-2.18-38.17-5.38-56.16A351.78,351.78,0,0,0,194.5,201C205,237,208.85,312.67,208.85,312.67A34.49,34.49,0,0,0,214.8,312.91Z" style="opacity:0.15"></path><path d="M154.92,175.63V181s3.83,5.82,23.18,5.82c20.63,0,20.37-4.48,20.37-4.48l.13-5.79Z" style="fill:#37474f"></path><path d="M202.25,158.19c-.4,4.58-2.29,13-3.65,18.37s-34.59,8-43.68-.93l-7-20.74s-.93-2.23-.91-2.25c.52-.89,13.77-15.18,3.42-34.7l15.9-1.33,18.78-.55c4.49.25,7.69.68,7.69.68,2.88,2.7,6.78,8.63,10.66,16.36C205.8,137.76,210.29,144.29,202.25,158.19Z" style="fill:#BA68C8"></path><g style="opacity:0.30000000000000004"><path d="M202.25,158.19c-.4,4.58-2.29,13-3.65,18.37s-34.59,8-43.68-.93l-7-20.74s-.93-2.23-.91-2.25c.52-.89,13.77-15.18,3.42-34.7l15.9-1.33,18.78-.55c4.49.25,7.69.68,7.69.68,2.88,2.7,6.78,8.63,10.66,16.36C205.8,137.76,210.29,144.29,202.25,158.19Z"></path></g><path d="M125.29,218.4c.54,5.23,1.14,12.3,2.18,16.32,3.61,13.95,8.25,18.13,14.43,18.54,9.85.66,9.92-3,5.49-9.38a31.6,31.6,0,0,1-4.4-9.07,23.34,23.34,0,0,0,4.74,3.05c2.45,1,4-.35,4.44-1.2.32-.66-1.39-1.33-3.28-3.63-2.41-2.95-3.16-5.91-6.47-8.35-1.24-.91-1.63-2.58-2-4.07-.5-2,.18-33.78,1.33-39.25l11.3-29.91c6-5,7.87-28.53-2.62-33.51-13.29,1.45-14.33,13.55-25.06,53.29C123.47,178.27,124.19,207.58,125.29,218.4Z" style="fill:#ffa8a7"></path><path d="M199.06,65.94c2.08,2.25,4.45,7,4.07,23.51-.32,14-4.86,17.47-7.14,18.47s-6.68.39-11-.33V116s1.67,4.32-6,4.76c-11.62.67-12.72-4.15-12.72-4.15l.1-19.33s-2.52,2.45-6.78-1.28c-3.53-3.08-4.71-8.27-2-11.06a6.13,6.13,0,0,1,9.76,2S170.15,72,180.19,69.47C190.05,67,192.8,74.43,199.06,65.94Z" style="fill:#ffa8a7"></path><path d="M166.33,116.61l-8.4.7s10.45,10.45,24.9,9.79,7.29-10.66,7.29-10.66L185,116Z" style="fill:#ffa8a7"></path><path d="M167.45,86.86v4.71h0A3.51,3.51,0,0,0,171,88.06l.12-6.21c2-2,1.36-5,1.71-8.42,0,0-4.42,5.54-5,8A23.1,23.1,0,0,0,167.45,86.86Z" style="fill:#263238"></path><path d="M176.32,75.27c1.38-4.86,6.62-6.73,10.31-6.18L179.05,65l-5.14,2.41a7,7,0,0,0-.42,1.27c-1.22,5.56-.51,10.1-2.41,13.15h0A10.83,10.83,0,0,0,176.32,75.27Z" style="fill:#263238"></path><path d="M186.32,84.17a1.76,1.76,0,1,1-1.93-1.65A1.8,1.8,0,0,1,186.32,84.17Z" style="fill:#263238"></path><path d="M183.28,83.18a1.76,1.76,0,0,1-1.7.24s.27,1,1.55.69C184.22,83.89,183.28,83.18,183.28,83.18Z" style="fill:#263238"></path><path d="M199.62,81.61a1.86,1.86,0,0,0,1.82-.27s-.11,1.26-1.29,1.17S199.62,81.61,199.62,81.61Z" style="fill:#263238"></path><g style="opacity:0.5;mix-blend-mode:multiply"><path d="M187.2,96.63,192.31,98a2.59,2.59,0,0,1-3.18,2A2.76,2.76,0,0,1,187.2,96.63Z" style="fill:#ffa8a7"></path></g><path d="M201.68,78.85l-4-1.76a2.08,2.08,0,0,1,2.8-1.15A2.28,2.28,0,0,1,201.68,78.85Z" style="fill:#263238"></path><path d="M184.26,78.23l-3.71,2.25a2.08,2.08,0,0,1,.65-3A2.28,2.28,0,0,1,184.26,78.23Z" style="fill:#263238"></path><path d="M200.66,82.92a1.76,1.76,0,1,1-1.93-1.65A1.79,1.79,0,0,1,200.66,82.92Z" style="fill:#263238"></path><g style="opacity:0.5;mix-blend-mode:multiply"><polygon points="192.56 83.38 193.36 93.96 198.85 91.96 192.56 83.38" style="fill:#ffa8a7"></polygon></g><g style="opacity:0.5;mix-blend-mode:multiply"><path d="M185,107.59c-4.51-.59-13.77-3.25-15.22-6.91a9.46,9.46,0,0,0,3.25,4.67c2.77,2.38,12,5.05,12,5.05Z" style="fill:#ffa8a7"></path></g><path d="M166.33,116.61a53.66,53.66,0,0,0-10.4.87s4.35,9,14,11.55c10.72,2.83,14-1.9,14-1.9C176.15,125.56,166.54,119.42,166.33,116.61Z" style="fill:#37474f"></path><path d="M183.9,127.13s4.82-3.67,1.14-11.13a61.81,61.81,0,0,1,6.86.61s4.1,6.88.41,10.52S183.9,127.13,183.9,127.13Z" style="fill:#37474f"></path><path d="M185.31,134.68a1.25,1.25,0,1,1,1.25,1.25A1.25,1.25,0,0,1,185.31,134.68Z" style="fill:#37474f"></path><circle cx="187.95" cy="142.99" r="1.25" style="fill:#37474f"></circle><circle cx="188.37" cy="151.55" r="1.25" style="fill:#37474f"></circle><path d="M187.12,159.64a1.25,1.25,0,1,1,1.25,1.24A1.25,1.25,0,0,1,187.12,159.64Z" style="fill:#37474f"></path><path d="M186.7,169.84a1.25,1.25,0,1,1,1.25,1.25A1.25,1.25,0,0,1,186.7,169.84Z" style="fill:#37474f"></path><path d="M148.89,233c-2.41-2.95-3.16-5.91-6.47-8.35-1.24-.91-1.63-2.58-2-4.07-.22-.86-.21-7.4,0-15h0c-3.75-3.7-14.47-1.93-15.79,2.24.19,4.19.44,7.89.7,10.5.54,5.23,1.14,12.3,2.18,16.32,3.62,13.95,8.25,18.13,14.43,18.54,9.85.66,9.92-3,5.49-9.38a31.6,31.6,0,0,1-4.4-9.07,23.34,23.34,0,0,0,4.74,3.05c2.45,1,4-.35,4.44-1.2C152.49,236,150.78,235.33,148.89,233Z" style="fill:#BA68C8"></path><path d="M270,188.47c-1.31,0-2.58,0-3.83-.08a17,17,0,0,1-2.95-.35,23.77,23.77,0,0,1-5.49-2.32,25,25,0,0,0-5.12-2.23l-1.15-.33c-1.56-.47-5.95-.87-12.74-1.19h-.32l.16-.27c2.11-5.4,1.24-12.37.4-14.06l-.12-.13c13.68,2,22.14,3.37,24.51,4.22,5.54,2,12.89,6.64,12,10.67l-1.24-.68a4.78,4.78,0,0,0-1.78-.31,7.29,7.29,0,0,0-3.78,1.14,1.56,1.56,0,0,0,.79.54l.89.34a12.53,12.53,0,0,1,4.27,2.22,2.42,2.42,0,0,1,.87,1.34,1.24,1.24,0,0,1-.73,1.44,1.62,1.62,0,0,1-.52.07Z" style="fill:#BA68C8"></path></g></svg>