<?xml version="1.0" standalone="no"?><svg xmlns="http://www.w3.org/2000/svg" viewBox="0 0 1440 320"><path fill="#5089c6" fill-opacity="1" d="M0,128L34.3,117.3C68.6,107,137,85,206,96C274.3,107,343,149,411,149.3C480,149,549,107,617,74.7C685.7,43,754,21,823,53.3C891.4,85,960,171,1029,208C1097.1,245,1166,235,1234,208C1302.9,181,1371,139,1406,117.3L1440,96L1440,0L1405.7,0C1371.4,0,1303,0,1234,0C1165.7,0,1097,0,1029,0C960,0,891,0,823,0C754.3,0,686,0,617,0C548.6,0,480,0,411,0C342.9,0,274,0,206,0C137.1,0,69,0,34,0L0,0Z"></path></svg>